<svg xmlns="http://www.w3.org/2000/svg" viewBox="0 0 512 512" role="img" aria-label="أنا عُماني - برج الصحوة">
<defs>
  <radialGradient id="bg" cx="50%" cy="38%" r="75%"><stop stop-color="#18395a"/><stop offset=".5" stop-color="#0b2035"/><stop offset="1" stop-color="#050b12"/></radialGradient>
  <linearGradient id="stone" x1="0" y1="0" x2="0" y2="1"><stop stop-color="#d29c68"/><stop offset=".52" stop-color="#9a5d34"/><stop offset="1" stop-color="#63351f"/></linearGradient>
  <linearGradient id="gold" x1="0" y1="0" x2="1" y2="1"><stop stop-color="#fff1a8"/><stop offset=".45" stop-color="#f2bd63"/><stop offset="1" stop-color="#9f5e18"/></linearGradient>
  <linearGradient id="blue" x1="0" y1="0" x2="1" y2="1"><stop stop-color="#2e8ce0"/><stop offset="1" stop-color="#123f87"/></linearGradient>
  <filter id="glow" x="-40%" y="-40%" width="180%" height="180%"><feGaussianBlur stdDeviation="8" result="b"/><feMerge><feMergeNode in="b"/><feMergeNode in="SourceGraphic"/></feMerge></filter>
  <filter id="shadow" x="-30%" y="-30%" width="160%" height="180%"><feDropShadow dx="0" dy="18" stdDeviation="16" flood-color="#000" flood-opacity=".55"/></filter>
</defs>
<rect width="512" height="512" rx="112" fill="url(#bg)"/>
<circle cx="256" cy="255" r="202" fill="none" stroke="#f2bd63" stroke-opacity=".22" stroke-width="2"/>
<path d="M72 401c83-55 285-57 368-2" fill="none" stroke="#f2bd63" stroke-width="9" stroke-linecap="round" opacity=".72" filter="url(#glow)"/>
<g filter="url(#shadow)">
  <path d="M118 118h45V86h39v32h108V86h39v32h45v285h-57V225H175v178h-57z" fill="url(#stone)" stroke="#f3c97d" stroke-width="6"/>
  <path d="M118 118V86h16V101h17V86h17V101h17V86h17V101h17V86h17V101h17V86h17V101h17V86h17V101h17V86h17V101h17V86h17V101h17V86h17v32z" fill="#a7663e"/>
  <rect x="150" y="139" width="212" height="145" rx="8" fill="url(#blue)" stroke="url(#gold)" stroke-width="8"/>
  <path d="M256 157l66 55-66 55-66-55z" fill="url(#gold)"/>
  <path d="M256 169l51 43-51 43-51-43z" fill="#245ba5"/>
  <circle cx="256" cy="212" r="39" fill="#fff8de" stroke="#6b3b1d" stroke-width="6"/>
  <g stroke="#6b3b1d" stroke-width="4" stroke-linecap="round"><path d="M256 181v31l22 14"/><path d="M256 174v8M256 242v8M218 212h9M285 212h9"/></g>
  <path d="M175 284h162v119h-38v-83h-86v83h-38z" fill="#c9905c"/>
  <path d="M213 320h86v83h-86z" fill="#241710"/>
</g>
<g fill="#f2bd63" filter="url(#glow)"><circle cx="91" cy="164" r="6"/><circle cx="421" cy="201" r="5"/><circle cx="402" cy="346" r="7"/></g>
</svg>