<svg xmlns="http://www.w3.org/2000/svg" viewBox="0 0 320 360">
<defs><linearGradient id="s" x1="0" y1="0" x2="0" y2="1"><stop stop-color="#c58d58"/><stop offset="1" stop-color="#75401f"/></linearGradient><linearGradient id="g" x1="0" y1="0" x2="1" y2="1"><stop stop-color="#fff4bf"/><stop offset=".45" stop-color="#f4b44d"/><stop offset="1" stop-color="#9d5c15"/></linearGradient><filter id="gl"><feGaussianBlur stdDeviation="5" result="b"/><feMerge><feMergeNode in="b"/><feMergeNode in="SourceGraphic"/></feMerge></filter></defs>
<ellipse cx="160" cy="337" rx="118" ry="15" fill="#f4b44d" opacity=".22" filter="url(#gl)"/>
<path d="M62 58h34V35h32v23h64V35h32v23h34v256h-38V141h-120v173H62z" fill="url(#s)" stroke="#f0c17a" stroke-width="5"/>
<path d="M62 58h196v25H62z" fill="#8b4f2c"/><path d="M62 58v-20h12v10h13V38h13v10h13V38h13v10h13V38h13v10h13V38h13v10h13V38h13v10h13V38h13v10h13V38h13v20z" fill="#9c5c37"/>
<path d="M84 83h152v113H84z" fill="#1d5aa8" stroke="#efc66a" stroke-width="5"/><path d="M160 101l42 42-42 42-42-42z" fill="#e7b84a"/><path d="M160 111l31 32-31 31-31-31z" fill="#1e70c8"/><circle cx="160" cy="143" r="23" fill="#fff8db" stroke="#623914" stroke-width="4"/>
<g stroke="#623914" stroke-width="2"><path d="M160 123v20l14 9"/><path d="M160 119v6M160 161v6M136 143h6M178 143h6"/></g>
<path d="M100 196h120v118h-28v-84h-64v84h-28z" fill="#d1a073" opacity=".95"/><path d="M128 230h64v84h-64z" fill="#352118"/>
<text x="160" y="77" text-anchor="middle" font-family="Arial,sans-serif" font-weight="700" font-size="18" fill="#ffe6a4">برج الصحوة</text>
<g fill="none" stroke="#ffbc45" stroke-width="3" opacity=".9" filter="url(#gl)"><path d="M42 283c46-38 189-46 236-3"/><path d="M44 301c70 23 172 20 232-6"/></g></svg>